<svg xmlns="http://www.w3.org/2000/svg" xmlns:xlink="http://www.w3.org/1999/xlink" xmlns:lucid="lucid" width="740" height="2014.66"><g transform="translate(-660 -65.34165987872206)" lucid:page-tab-id="0_0"><path d="M928 85.34c17.67 0 32 12.24 32 27.33 0 15.1-14.33 27.33-32 27.33h-96c-17.67 0-32-12.24-32-27.33 0-15.1 14.33-27.33 32-27.33z" stroke="#54c45e" fill="#54c45e"/><use xlink:href="#a" transform="matrix(1,0,0,1,805,90.34165987872206) translate(51.574074074074076 26.21527777777778)"/><path d="M727.06 192.4a6 6 0 0 1 6-6h293.88a6 6 0 0 1 6 6v69.86a6 6 0 0 1-6 6H733.06a6 6 0 0 1-6-6z" stroke="#d7faf5" fill="#e3fae3"/><use xlink:href="#b" transform="matrix(1,0,0,1,739.0558421576613,198.4) translate(24.930864197530852 18.48888888888889)"/><use xlink:href="#c" transform="matrix(1,0,0,1,739.0558421576613,198.4) translate(76.16049382716048 18.48888888888889)"/><use xlink:href="#d" transform="matrix(1,0,0,1,739.0558421576613,198.4) translate(114.679012345679 18.48888888888889)"/><use xlink:href="#e" transform="matrix(1,0,0,1,739.0558421576613,198.4) translate(182.66419753086421 18.48888888888889)"/><use xlink:href="#f" transform="matrix(1,0,0,1,739.0558421576613,198.4) translate(208.3432098765432 18.48888888888889)"/><use xlink:href="#g" transform="matrix(1,0,0,1,739.0558421576613,198.4) translate(13.343209876543199 46.22222222222223)"/><use xlink:href="#h" transform="matrix(1,0,0,1,739.0558421576613,198.4) translate(114.7753086419753 46.22222222222223)"/><use xlink:href="#i" transform="matrix(1,0,0,1,739.0558421576613,198.4) translate(159.71358024691358 46.22222222222223)"/><path d="M705.47 332.4a6 6 0 0 1 6-6h337.06a6 6 0 0 1 6 6v95.2a6 6 0 0 1-6 6H711.47a6 6 0 0 1-6-6z" stroke="#d7faf5" fill="#e3fae3"/><use xlink:href="#j" transform="matrix(1,0,0,1,717.4688961293632,338.4) translate(20.641975308641975 31.61388888888889)"/><use xlink:href="#c" transform="matrix(1,0,0,1,717.4688961293632,338.4) translate(83.49135802469135 31.61388888888889)"/><use xlink:href="#k" transform="matrix(1,0,0,1,717.4688961293632,338.4) translate(122.00987654320988 31.61388888888889)"/><use xlink:href="#l" transform="matrix(1,0,0,1,717.4688961293632,338.4) translate(248.9283950617284 31.61388888888889)"/><use xlink:href="#m" transform="matrix(1,0,0,1,717.4688961293632,338.4) translate(281.0271604938272 31.61388888888889)"/><use xlink:href="#h" transform="matrix(1,0,0,1,717.4688961293632,338.4) translate(5.106172839506144 59.34722222222223)"/><use xlink:href="#n" transform="matrix(1,0,0,1,717.4688961293632,338.4) translate(50.044444444444416 59.34722222222223)"/><use xlink:href="#o" transform="matrix(1,0,0,1,717.4688961293632,338.4) translate(182.29135802469136 59.34722222222223)"/><use xlink:href="#p" transform="matrix(1,0,0,1,717.4688961293632,338.4) translate(201.55061728395063 59.34722222222223)"/><use xlink:href="#c" transform="matrix(1,0,0,1,717.4688961293632,338.4) translate(227.22962962962964 59.34722222222223)"/><use xlink:href="#q" transform="matrix(1,0,0,1,717.4688961293632,338.4) translate(265.7481481481482 59.34722222222223)"/><path d="M874.87 474.66a9.92 9.92 0 0 1 10.26 0l122.68 74.2a3.63 3.63 0 0 1 0 6.2l-122.67 74.2a9.92 9.92 0 0 1-10.26 0l-122.68-74.2a3.63 3.63 0 0 1 0-6.2z" stroke="#6db1ff" fill="#6db1ff"/><use xlink:href="#r" transform="matrix(1,0,0,1,752.0558421576613,476.55278004042594) translate(95.29635802469136 37.363888888888894)"/><use xlink:href="#s" transform="matrix(1,0,0,1,752.0558421576613,476.55278004042594) translate(68.3333950617284 65.09722222222223)"/><use xlink:href="#t" transform="matrix(1,0,0,1,752.0558421576613,476.55278004042594) translate(86.2445061728395 65.09722222222223)"/><use xlink:href="#u" transform="matrix(1,0,0,1,752.0558421576613,476.55278004042594) translate(129.89882716049382 65.09722222222223)"/><use xlink:href="#v" transform="matrix(1,0,0,1,752.0558421576613,476.55278004042594) translate(155.57783950617284 65.09722222222223)"/><use xlink:href="#w" transform="matrix(1,0,0,1,752.0558421576613,476.55278004042594) translate(48.52845679012345 92.83055555555556)"/><use xlink:href="#x" transform="matrix(1,0,0,1,752.0558421576613,476.55278004042594) translate(151.1161111111111 92.83055555555556)"/><use xlink:href="#y" transform="matrix(1,0,0,1,752.0558421576613,476.55278004042594) translate(84.38277777777778 120.5638888888889)"/><path d="M1140 612.4a6 6 0 0 1 6-6h228a6 6 0 0 1 6 6v95.2a6 6 0 0 1-6 6h-228a6 6 0 0 1-6-6z" stroke="#d7faf5" fill="#e3fae3"/><use xlink:href="#z" transform="matrix(1,0,0,1,1152,618.4) translate(12.891358024691357 18.48888888888889)"/><use xlink:href="#A" transform="matrix(1,0,0,1,1152,618.4) translate(77.47407407407408 18.48888888888889)"/><use xlink:href="#c" transform="matrix(1,0,0,1,1152,618.4) translate(60.52592592592592 46.22222222222223)"/><use xlink:href="#l" transform="matrix(1,0,0,1,1152,618.4) translate(99.04444444444444 46.22222222222223)"/><use xlink:href="#m" transform="matrix(1,0,0,1,1152,618.4) translate(131.1432098765432 46.22222222222223)"/><use xlink:href="#B" transform="matrix(1,0,0,1,1152,618.4) translate(44.54074074074074 73.95555555555556)"/><path d="M680 708.53a6 6 0 0 1 6-6h395.5a6 6 0 0 1 6 6v122.94a6 6 0 0 1-6 6H686a6 6 0 0 1-6-6z" stroke="#d7faf5" fill="#e3fae3"/><use xlink:href="#C" transform="matrix(1,0,0,1,692,714.5333333333333) translate(15.585185185185168 18.48888888888889)"/><use xlink:href="#c" transform="matrix(1,0,0,1,692,714.5333333333333) translate(116.82469135802467 18.48888888888889)"/><use xlink:href="#D" transform="matrix(1,0,0,1,692,714.5333333333333) translate(155.34320987654317 18.48888888888889)"/><use xlink:href="#E" transform="matrix(1,0,0,1,692,714.5333333333333) translate(268.33086419753084 18.48888888888889)"/><use xlink:href="#c" transform="matrix(1,0,0,1,692,714.5333333333333) translate(294.0098765432099 18.48888888888889)"/><use xlink:href="#F" transform="matrix(1,0,0,1,692,714.5333333333333) translate(332.52839506172836 18.48888888888889)"/><use xlink:href="#G" transform="matrix(1,0,0,1,692,714.5333333333333) translate(2.2641975308641804 46.22222222222223)"/><use xlink:href="#H" transform="matrix(1,0,0,1,692,714.5333333333333) translate(104.85185185185182 46.22222222222223)"/><use xlink:href="#c" transform="matrix(1,0,0,1,692,714.5333333333333) translate(153.57777777777775 46.22222222222223)"/><use xlink:href="#I" transform="matrix(1,0,0,1,692,714.5333333333333) translate(192.09629629629626 46.22222222222223)"/><use xlink:href="#e" transform="matrix(1,0,0,1,692,714.5333333333333) translate(272.72839506172835 46.22222222222223)"/><use xlink:href="#c" transform="matrix(1,0,0,1,692,714.5333333333333) translate(298.4074074074074 46.22222222222223)"/><use xlink:href="#J" transform="matrix(1,0,0,1,692,714.5333333333333) translate(336.9259259259259 46.22222222222223)"/><use xlink:href="#K" transform="matrix(1,0,0,1,692,714.5333333333333) translate(18.217283950617286 73.95555555555556)"/><use xlink:href="#L" transform="matrix(1,0,0,1,692,714.5333333333333) translate(66.87901234567902 73.95555555555556)"/><use xlink:href="#g" transform="matrix(1,0,0,1,692,714.5333333333333) translate(96.34567901234568 73.95555555555556)"/><use xlink:href="#M" transform="matrix(1,0,0,1,692,714.5333333333333) translate(197.77777777777777 73.95555555555556)"/><use xlink:href="#N" transform="matrix(1,0,0,1,692,714.5333333333333) translate(264.4148148148148 73.95555555555556)"/><use xlink:href="#O" transform="matrix(1,0,0,1,692,714.5333333333333) translate(333.6839506172839 73.95555555555556)"/><use xlink:href="#P" transform="matrix(1,0,0,1,692,714.5333333333333) translate(111.84938271604938 101.6888888888889)"/><use xlink:href="#Q" transform="matrix(1,0,0,1,692,714.5333333333333) translate(177.13827160493827 101.6888888888889)"/><path d="M800 906a6 6 0 0 1 6-6h148a6 6 0 0 1 6 6v68a6 6 0 0 1-6 6H806a6 6 0 0 1-6-6z" stroke="#d7faf5" fill="#e3fae3"/><use xlink:href="#R" transform="matrix(1,0,0,1,812,912) translate(28.19753086419753 18.48888888888889)"/><use xlink:href="#O" transform="matrix(1,0,0,1,812,912) translate(75.7037037037037 18.48888888888889)"/><use xlink:href="#S" transform="matrix(1,0,0,1,812,912) translate(7.750617283950618 46.22222222222223)"/><path d="M1000 1166a6 6 0 0 1 6-6h241.8a6 6 0 0 1 6 6v73.34a6 6 0 0 1-6 6H1006a6 6 0 0 1-6-6z" stroke="#d7faf5" fill="#e3fae3"/><use xlink:href="#z" transform="matrix(1,0,0,1,1012,1172) translate(0.6320987654321044 18.48888888888889)"/><use xlink:href="#T" transform="matrix(1,0,0,1,1012,1172) translate(65.21481481481483 18.48888888888889)"/><use xlink:href="#O" transform="matrix(1,0,0,1,1012,1172) translate(197.26913580246912 18.48888888888889)"/><use xlink:href="#l" transform="matrix(1,0,0,1,1012,1172) translate(29.1037037037037 46.22222222222223)"/><use xlink:href="#U" transform="matrix(1,0,0,1,1012,1172) translate(61.20246913580247 46.22222222222223)"/><use xlink:href="#i" transform="matrix(1,0,0,1,1012,1172) translate(91.95308641975308 46.22222222222223)"/><path d="M875.2 1016.56a8.04 8.04 0 0 1 9.6 0l96.86 72.25a4.48 4.48 0 0 1 0 7.2l-96.85 72.24a8.04 8.04 0 0 1-9.6 0L778.33 1096a4.48 4.48 0 0 1 0-7.2z" stroke="#6db1ff" fill="#6db1ff"/><use xlink:href="#V" transform="matrix(1,0,0,1,778.5279210788307,1017.968896129363) translate(59.8408024691358 51.082638888888894)"/><use xlink:href="#W" transform="matrix(1,0,0,1,778.5279210788307,1017.968896129363) translate(131.67783950617286 51.082638888888894)"/><use xlink:href="#X" transform="matrix(1,0,0,1,778.5279210788307,1017.968896129363) translate(38.6235185185185 78.81597222222223)"/><use xlink:href="#Y" transform="matrix(1,0,0,1,778.5279210788307,1017.968896129363) translate(77.14203703703703 78.81597222222223)"/><use xlink:href="#Z" transform="matrix(1,0,0,1,778.5279210788307,1017.968896129363) translate(147.75932098765432 78.81597222222223)"/><use xlink:href="#y" transform="matrix(1,0,0,1,778.5279210788307,1017.968896129363) translate(57.38277777777777 106.54930555555556)"/><path d="M803.75 1266a6 6 0 0 1 6-6h148a6 6 0 0 1 6 6v48a6 6 0 0 1-6 6h-148a6 6 0 0 1-6-6z" stroke="#d7faf5" fill="#e3fae3"/><use xlink:href="#aa" transform="matrix(1,0,0,1,815.75,1272) translate(18.154320987654316 22.27777777777778)"/><path d="M880.2 1381.44a9.8 9.8 0 0 1 10.23 0l89.2 54.58a3.67 3.67 0 0 1 0 6.27l-89.2 54.57a9.8 9.8 0 0 1-10.24 0L791 1442.3a3.67 3.67 0 0 1 0-6.28z" stroke="#6db1ff" fill="#6db1ff"/><use xlink:href="#ab" transform="matrix(1,0,0,1,790.8828250620727,1383.3105560080853) translate(37.833333333333336 47.111111111111114)"/><use xlink:href="#ac" transform="matrix(1,0,0,1,790.8828250620727,1383.3105560080853) translate(131.47530864197532 47.111111111111114)"/><use xlink:href="#ad" transform="matrix(1,0,0,1,790.8828250620727,1383.3105560080853) translate(38.45061728395061 73.77777777777777)"/><path d="M1303 1640c17.67 0 32 13.43 32 30s-14.33 30-32 30h-96c-17.67 0-32-13.43-32-30s14.33-30 32-30z" stroke="#3a414a" fill="#e81313"/><use xlink:href="#ae" transform="matrix(1,0,0,1,1180,1645) translate(26.26543209876543 30.27777777777778)"/><path d="M760 1566a6 6 0 0 1 6-6h238a6 6 0 0 1 6 6v68a6 6 0 0 1-6 6H766a6 6 0 0 1-6-6z" stroke="#d7faf5" fill="#e3fae3"/><use xlink:href="#af" transform="matrix(1,0,0,1,772,1572) translate(0.7777777777777715 17.77777777777778)"/><use xlink:href="#ag" transform="matrix(1,0,0,1,772,1572) translate(72.32098765432097 17.77777777777778)"/><use xlink:href="#ah" transform="matrix(1,0,0,1,772,1572) translate(109.35802469135801 17.77777777777778)"/><use xlink:href="#ai" transform="matrix(1,0,0,1,772,1572) translate(67.96913580246914 44.44444444444444)"/><use xlink:href="#aj" transform="matrix(1,0,0,1,772,1572) translate(92.6604938271605 44.44444444444444)"/><use xlink:href="#ak" transform="matrix(1,0,0,1,772,1572) translate(123.5246913580247 44.44444444444444)"/><path d="M805 1706a6 6 0 0 1 6-6h148a6 6 0 0 1 6 6v48a6 6 0 0 1-6 6H811a6 6 0 0 1-6-6z" stroke="#d7faf5" fill="#e3fae3"/><use xlink:href="#aa" transform="matrix(1,0,0,1,816.9999999999999,1712) translate(18.154320987654316 22.27777777777778)"/><path d="M880.2 1823.6a8 8 0 0 1 9.6 0l70.4 52.8a4.5 4.5 0 0 1 0 7.2l-70.4 52.8a8 8 0 0 1-9.6 0l-70.4-52.8a4.5 4.5 0 0 1 0-7.2z" stroke="#6db1ff" fill="#6db1ff"/><use xlink:href="#ab" transform="matrix(1,0,0,1,809.9999999999999,1825) translate(18.333333333333336 46.111111111111114)"/><use xlink:href="#ac" transform="matrix(1,0,0,1,809.9999999999999,1825) translate(111.97530864197532 46.111111111111114)"/><use xlink:href="#ad" transform="matrix(1,0,0,1,809.9999999999999,1825) translate(18.950617283950614 72.77777777777777)"/><path d="M1250.02 1438.73l1 .24.93.4.87.53.78.66.66.77.53.87.38.95.25 1 .07 178.97h-1l-.07-178.84-.2-.82-.33-.8-.45-.74-.56-.65-.67-.56-.73-.44-.8-.33-.84-.2-.88-.07h-15.06v-1h15.1zm-267.64.93v-1h220.92v1z" stroke="#e81313" stroke-width=".05" fill="#e81313"/><path d="M982.4 1439.66h-.57l.05-.5-.05-.5h.56z" fill="#e81313"/><path d="M982.42 1439.68h-.62l.05-.52-.05-.53h.62zm-.56-1l.05.48-.04.47h.5v-.95z" stroke="#e81313" stroke-width=".05" fill="#e81313"/><path d="M1255 1637.88l-4.64-14.26h9.28z" fill="#e81313"/><path d="M1255 1639.5l-5.32-16.38h10.64zm-3.95-15.38l3.95 12.14 3.95-12.14z" stroke="#e81313" stroke-width=".05" fill="#e81313"/><use xlink:href="#al" transform="matrix(1,0,0,1,1203.3037131674555,1428.488611337376) translate(0 14.222222222222223)"/><path d="M1183.2 1880.5H963v-1h220.2zm72.3-163.62l-.07 158.12-.25 1-.4.95-.52.87-.66.78-.78.66-.87.53-.94.38-.98.24-1 .08h-35.2v-1h35.16l.88-.07.84-.2.8-.33.73-.45.66-.56.55-.67.45-.73.33-.8.2-.82.07-158z" stroke="#e81313" stroke-width=".05" fill="#e81313"/><path d="M963 1880.5h-.54l.04-.5-.04-.5h.55z" fill="#e81313"/><path d="M963.04 1880.53h-.6l.04-.53-.05-.53h.6zm-.56-1l.05.47-.05.47h.5v-.94z" stroke="#e81313" stroke-width=".05" fill="#e81313"/><path d="M1259.64 1716.38h-9.28l4.64-14.26z" fill="#e81313"/><path d="M1260.32 1716.88h-10.64l5.32-16.38zm-9.27-1h7.9l-3.95-12.14z" stroke="#e81313" stroke-width=".05" fill="#e81313"/><g><use xlink:href="#al" transform="matrix(1,0,0,1,1183.1924155141946,1869.3333333333333) translate(0 14.222222222222223)"/></g><path d="M885.5 1543.15h-1v-3.3h1zm.3-24.64h-1v-19.2h1z" stroke="#54c45e" stroke-width=".05" fill="#54c45e"/><path d="M885.3 1498.8l.5-.02v.54h-1v-.54z" fill="#54c45e"/><path d="M885.3 1498.8l.54-.04v.6h-1.05v-.6zm-.46.5h.95v-.5l-.5.04-.46-.03z" stroke="#54c45e" stroke-width=".05" fill="#54c45e"/><path d="M885 1557.92l-4.64-14.27h9.28z" fill="#54c45e"/><path d="M885 1559.54l-5.32-16.4h10.64zm-3.95-15.4l3.95 12.16 3.95-12.15z" stroke="#54c45e" stroke-width=".05" fill="#54c45e"/><g><use xlink:href="#am" transform="matrix(1,0,0,1,873.353246348744,1518.5070412326374) translate(0 14.222222222222223)"/></g><path d="M1121.9 1091.98l1 .23.95.4.87.54.77.66.65.78.54.87.38.94.24 1 .07 45.75h-1l-.08-45.63-.2-.82-.33-.8-.46-.73-.56-.66-.65-.55-.74-.45-.8-.33-.85-.2-.88-.07h-16.56v-1h16.6zm-137.44.92v-1h89.23v1z" stroke="#54c45e" stroke-width=".05" fill="#54c45e"/><path d="M984.48 1092.9h-.56l.04-.5-.04-.5h.56z" fill="#54c45e"/><path d="M984.5 1092.92h-.6l.04-.52-.05-.53h.6zm-.55-1l.04.48-.05.47h.5v-.95z" stroke="#54c45e" stroke-width=".05" fill="#54c45e"/><path d="M1126.9 1157.92l-4.64-14.27h9.27z" fill="#54c45e"/><path d="M1126.9 1159.54l-5.33-16.4h10.65zm-3.95-15.4l3.94 12.16 3.94-12.15z" stroke="#54c45e" stroke-width=".05" fill="#54c45e"/><g><use xlink:href="#an" transform="matrix(1,0,0,1,1073.690539749663,1081.7308353697165) translate(0 14.222222222222223)"/></g><path d="M880.5 1243.15h-1v-17.55h1zm0-38.88h-1v-33.43h1z" stroke="#e81313" stroke-width=".05" fill="#e81313"/><path d="M880 1170.34l.5-.04v.55h-1v-.55z" fill="#e81313"/><path d="M880 1170.3l.52-.02v.6h-1.04v-.6zm-.48.52h.96v-.5l-.48.04-.48-.03z" stroke="#e81313" stroke-width=".05" fill="#e81313"/><path d="M880 1257.92l-4.64-14.27h9.28z" fill="#e81313"/><path d="M880 1259.54l-5.32-16.4h10.64zm-3.95-15.4l3.95 12.16 3.95-12.15z" stroke="#e81313" stroke-width=".05" fill="#e81313"/><g><use xlink:href="#ao" transform="matrix(1,0,0,1,868.1975308641976,1204.2704632202765) translate(0 14.222222222222223)"/></g><path d="M883.75 1320.96v42.3" stroke="#3a414a" fill="none"/><path d="M884.25 1320.98h-1v-.52h1z" stroke="#3a414a" stroke-width=".05" fill="#3a414a"/><path d="M883.75 1378.02l-4.64-14.27h9.3z" stroke="#3a414a" fill="#3a414a"/><path d="M885 1640.96v42.2" stroke="#3a414a" fill="none"/><path d="M885.5 1640.98h-1v-.52h1z" stroke="#3a414a" stroke-width=".05" fill="#3a414a"/><path d="M885 1697.92l-4.64-14.27h9.28z" stroke="#3a414a" fill="#3a414a"/><path d="M885 1760.96v44.16" stroke="#3a414a" fill="none"/><path d="M885.5 1760.98h-1v-.52h1z" stroke="#3a414a" stroke-width=".05" fill="#3a414a"/><path d="M885 1819.88l-4.64-14.26h9.28z" stroke="#3a414a" fill="#3a414a"/><path d="M933 2000c17.67 0 32 13.43 32 30s-14.33 30-32 30h-96c-17.67 0-32-13.43-32-30s14.33-30 32-30z" stroke="#54c45e" fill="#54c45e"/><g><use xlink:href="#ap" transform="matrix(1,0,0,1,810,2005) translate(48.48765432098766 30.27777777777778)"/></g><path d="M880 141v28.55" stroke="#3a414a" fill="none"/><path d="M880.5 141h-1v-.5h1z" stroke="#3a414a" stroke-width=".05" fill="#3a414a"/><path d="M880 184.32l-4.64-14.27h9.28z" stroke="#3a414a" fill="#3a414a"/><path d="M880 269.22v40.33" stroke="#3a414a" fill="none"/><path d="M880.5 269.23h-1v-.5h1z" stroke="#3a414a" stroke-width=".05" fill="#3a414a"/><path d="M880 324.32l-4.64-14.27h9.28z" stroke="#3a414a" fill="#3a414a"/><path d="M880 434.56v21.78" stroke="#3a414a" fill="none"/><path d="M880.5 434.58h-1v-.52h1z" stroke="#3a414a" stroke-width=".05" fill="#3a414a"/><path d="M880 471.1l-4.64-14.26h9.28z" stroke="#3a414a" fill="#3a414a"/><path d="M1255.02 551.53l1 .24.93.4.87.52.78.66.66.77.53.87.38.95.25 1 .07 32.6h-1l-.07-32.47-.2-.82-.33-.8-.45-.74-.56-.65-.67-.56-.73-.44-.8-.33-.84-.2-.88-.08h-76.65v-1h76.7zm-244.46.92v-1h136.15v1z" stroke="#54c45e" stroke-width=".05" fill="#54c45e"/><path d="M1010.58 552.45h-.57l.06-.5-.05-.5h.58z" fill="#54c45e"/><path d="M1010.6 552.48h-.62l.06-.53-.06-.52h.62zm-.56-1l.05.47-.06.48h.5v-.95z" stroke="#54c45e" stroke-width=".05" fill="#54c45e"/><path d="M1260 604.32l-4.64-14.27h9.28z" fill="#54c45e"/><path d="M1260 605.94l-5.32-16.4h10.64zm-3.95-15.4l3.95 12.16 3.95-12.15z" stroke="#54c45e" stroke-width=".05" fill="#54c45e"/><g><use xlink:href="#an" transform="matrix(1,0,0,1,1146.7142915825764,541.2877784920173) translate(0 14.222222222222223)"/></g><path d="M1260 714.56V764a6 6 0 0 1-6 6h-149.65" stroke="#3a414a" fill="none"/><path d="M1260.5 714.58h-1v-.52h1z" stroke="#3a414a" stroke-width=".05" fill="#3a414a"/><path d="M1089.58 770l14.27-4.64v9.28z" stroke="#3a414a" fill="#3a414a"/><path d="M880.5 685.7h-1v-8.4h1zm0-29.74h-1v-24.28h1z" stroke="#e81313" stroke-width=".05" fill="#e81313"/><path d="M880 631.18l.5-.02v.54h-1v-.54z" fill="#e81313"/><path d="M880 631.16l.52-.03v.6h-1.04v-.6zm-.48.5h.96v-.48l-.48.03-.48-.02z" stroke="#e81313" stroke-width=".05" fill="#e81313"/><path d="M880 700.45l-4.63-14.26h9.27z" fill="#e81313"/><path d="M880 702.07l-5.3-16.38h10.63zm-3.94-15.38l3.95 12.13 3.96-12.14z" stroke="#e81313" stroke-width=".05" fill="#e81313"/><g><use xlink:href="#ao" transform="matrix(1,0,0,1,868.2019789922728,655.9605955906518) translate(0 14.222222222222223)"/></g><path d="M883.75 838.43v44.72" stroke="#3a414a" fill="none"/><path d="M884.25 838.44h-1v-.5h1z" stroke="#3a414a" stroke-width=".05" fill="#3a414a"/><path d="M883.75 897.92l-4.64-14.27h9.3z" stroke="#3a414a" fill="#3a414a"/><path d="M880 980.96v17.12" stroke="#3a414a" fill="none"/><path d="M880.5 980.98h-1v-.52h1z" stroke="#3a414a" stroke-width=".05" fill="#3a414a"/><path d="M880 1012.84l-4.64-14.26h9.28z" stroke="#3a414a" fill="#3a414a"/><path d="M885.5 1983.12h-1v-3.45h1zm0-24.8h-1V1939h1z" stroke="#54c45e" stroke-width=".05" fill="#54c45e"/><path d="M885 1938.5l.5-.03v.54h-1v-.53z" fill="#54c45e"/><path d="M885 1938.48l.52-.04v.6h-1.04v-.6zm-.48.5h.96v-.48l-.48.03-.48-.03z" stroke="#54c45e" stroke-width=".05" fill="#54c45e"/><path d="M885 1997.88l-4.64-14.26h9.28z" fill="#54c45e"/><path d="M885 1999.5l-5.32-16.38h10.64zm-3.95-15.38l3.95 12.14 3.95-12.14z" stroke="#54c45e" stroke-width=".05" fill="#54c45e"/><g><use xlink:href="#am" transform="matrix(1,0,0,1,873.1975308641975,1958.3338415626) translate(0 14.222222222222223)"/></g><path d="M1126.9 1246.3v37.7a6 6 0 0 1-6 6H980.6" stroke="#3a414a" fill="none"/><path d="M1127.4 1246.32h-1v-.52h1z" stroke="#3a414a" stroke-width=".05" fill="#3a414a"/><path d="M965.83 1290l14.27-4.64v9.28z" stroke="#3a414a" fill="#3a414a"/><defs><path fill="#3a414a" d="M185-189c-5-48-123-54-124 2 14 75 158 14 163 119 3 78-121 87-175 55-17-10-28-26-33-46l33-7c5 56 141 63 141-1 0-78-155-14-162-118-5-82 145-84 179-34 5 7 8 16 11 25" id="aq"/><path fill="#3a414a" d="M59-47c-2 24 18 29 38 22v24C64 9 27 4 27-40v-127H5v-23h24l9-43h21v43h35v23H59v120" id="ar"/><path fill="#3a414a" d="M141-36C126-15 110 5 73 4 37 3 15-17 15-53c-1-64 63-63 125-63 3-35-9-54-41-54-24 1-41 7-42 31l-33-3c5-37 33-52 76-52 45 0 72 20 72 64v82c-1 20 7 32 28 27v20c-31 9-61-2-59-35zM48-53c0 20 12 33 32 33 41-3 63-29 60-74-43 2-92-5-92 41" id="as"/><path fill="#3a414a" d="M114-163C36-179 61-72 57 0H25l-1-190h30c1 12-1 29 2 39 6-27 23-49 58-41v29" id="at"/><g id="a"><use transform="matrix(0.06172839506172839,0,0,0.06172839506172839,0,0)" xlink:href="#aq"/><use transform="matrix(0.06172839506172839,0,0,0.06172839506172839,14.814814814814813,0)" xlink:href="#ar"/><use transform="matrix(0.06172839506172839,0,0,0.06172839506172839,20.98765432098765,0)" xlink:href="#as"/><use transform="matrix(0.06172839506172839,0,0,0.06172839506172839,33.33333333333333,0)" xlink:href="#at"/><use transform="matrix(0.06172839506172839,0,0,0.06172839506172839,40.679012345679006,0)" xlink:href="#ar"/></g><path fill="#474d66" d="M185-189c-5-48-123-54-124 2 14 75 158 14 163 119 3 78-121 87-175 55-17-10-28-26-33-46l33-7c5 56 141 63 141-1 0-78-155-14-162-118-5-82 145-84 179-34 5 7 8 16 11 25" id="au"/><path fill="#474d66" d="M115-194c55 1 70 41 70 98S169 2 115 4C84 4 66-9 55-30l1 105H24l-1-265h31l2 30c10-21 28-34 59-34zm-8 174c40 0 45-34 45-75s-6-73-45-74c-42 0-51 32-51 76 0 43 10 73 51 73" id="av"/><path fill="#474d66" d="M24 0v-261h32V0H24" id="aw"/><path fill="#474d66" d="M24-231v-30h32v30H24zM24 0v-190h32V0H24" id="ax"/><path fill="#474d66" d="M59-47c-2 24 18 29 38 22v24C64 9 27 4 27-40v-127H5v-23h24l9-43h21v43h35v23H59v120" id="ay"/><g id="b"><use transform="matrix(0.06419753086419754,0,0,0.06419753086419754,0,0)" xlink:href="#au"/><use transform="matrix(0.06419753086419754,0,0,0.06419753086419754,15.407407407407408,0)" xlink:href="#av"/><use transform="matrix(0.06419753086419754,0,0,0.06419753086419754,28.246913580246915,0)" xlink:href="#aw"/><use transform="matrix(0.06419753086419754,0,0,0.06419753086419754,33.318518518518516,0)" xlink:href="#ax"/><use transform="matrix(0.06419753086419754,0,0,0.06419753086419754,38.39012345679012,0)" xlink:href="#ay"/></g><path fill="#474d66" d="M106-169C34-169 62-67 57 0H25v-261h32l-1 103c12-21 28-36 61-36 89 0 53 116 60 194h-32v-121c2-32-8-49-39-48" id="az"/><path fill="#474d66" d="M100-194c63 0 86 42 84 106H49c0 40 14 67 53 68 26 1 43-12 49-29l28 8c-11 28-37 45-77 45C44 4 14-33 15-96c1-61 26-98 85-98zm52 81c6-60-76-77-97-28-3 7-6 17-6 28h103" id="aA"/><g id="c"><use transform="matrix(0.06419753086419754,0,0,0.06419753086419754,0,0)" xlink:href="#ay"/><use transform="matrix(0.06419753086419754,0,0,0.06419753086419754,6.419753086419753,0)" xlink:href="#az"/><use transform="matrix(0.06419753086419754,0,0,0.06419753086419754,19.25925925925926,0)" xlink:href="#aA"/></g><path fill="#474d66" d="M117-194c89-4 53 116 60 194h-32v-121c0-31-8-49-39-48C34-167 62-67 57 0H25l-1-190h30c1 10-1 24 2 32 11-22 29-35 61-36" id="aB"/><path fill="#474d66" d="M84 4C-5 8 30-112 23-190h32v120c0 31 7 50 39 49 72-2 45-101 50-169h31l1 190h-30c-1-10 1-25-2-33-11 22-28 36-60 37" id="aC"/><path fill="#474d66" d="M135-143c-3-34-86-38-87 0 15 53 115 12 119 90S17 21 10-45l28-5c4 36 97 45 98 0-10-56-113-15-118-90-4-57 82-63 122-42 12 7 21 19 24 35" id="aD"/><g id="d"><use transform="matrix(0.06419753086419754,0,0,0.06419753086419754,0,0)" xlink:href="#ax"/><use transform="matrix(0.06419753086419754,0,0,0.06419753086419754,5.071604938271605,0)" xlink:href="#aB"/><use transform="matrix(0.06419753086419754,0,0,0.06419753086419754,17.91111111111111,0)" xlink:href="#av"/><use transform="matrix(0.06419753086419754,0,0,0.06419753086419754,30.75061728395062,0)" xlink:href="#aC"/><use transform="matrix(0.06419753086419754,0,0,0.06419753086419754,43.590123456790124,0)" xlink:href="#ay"/><use transform="matrix(0.06419753086419754,0,0,0.06419753086419754,50.00987654320988,0)" xlink:href="#aD"/></g><path fill="#474d66" d="M100-194c62-1 85 37 85 99 1 63-27 99-86 99S16-35 15-95c0-66 28-99 85-99zM99-20c44 1 53-31 53-75 0-43-8-75-51-75s-53 32-53 75 10 74 51 75" id="aE"/><g id="e"><use transform="matrix(0.06419753086419754,0,0,0.06419753086419754,0,0)" xlink:href="#ay"/><use transform="matrix(0.06419753086419754,0,0,0.06419753086419754,6.419753086419753,0)" xlink:href="#aE"/></g><path fill="#474d66" d="M177-190C167-65 218 103 67 71c-23-6-38-20-44-43l32-5c15 47 100 32 89-28v-30C133-14 115 1 83 1 29 1 15-40 15-95c0-56 16-97 71-98 29-1 48 16 59 35 1-10 0-23 2-32h30zM94-22c36 0 50-32 50-73 0-42-14-75-50-75-39 0-46 34-46 75s6 73 46 73" id="aF"/><path fill="#474d66" d="M68-38c1 34 0 65-14 84H32c9-13 17-26 17-46H33v-38h35" id="aG"/><g id="f"><use transform="matrix(0.06419753086419754,0,0,0.06419753086419754,0,0)" xlink:href="#aD"/><use transform="matrix(0.06419753086419754,0,0,0.06419753086419754,11.555555555555557,0)" xlink:href="#ax"/><use transform="matrix(0.06419753086419754,0,0,0.06419753086419754,16.627160493827162,0)" xlink:href="#aF"/><use transform="matrix(0.06419753086419754,0,0,0.06419753086419754,29.46666666666667,0)" xlink:href="#aB"/><use transform="matrix(0.06419753086419754,0,0,0.06419753086419754,42.306172839506175,0)" xlink:href="#aG"/></g><path fill="#474d66" d="M141 0L90-78 38 0H4l68-98-65-92h35l48 74 47-74h35l-64 92 68 98h-35" id="aH"/><g id="g"><use transform="matrix(0.06419753086419754,0,0,0.06419753086419754,0,0)" xlink:href="#aA"/><use transform="matrix(0.06419753086419754,0,0,0.06419753086419754,12.839506172839506,0)" xlink:href="#aH"/><use transform="matrix(0.06419753086419754,0,0,0.06419753086419754,24.395061728395063,0)" xlink:href="#av"/><use transform="matrix(0.06419753086419754,0,0,0.06419753086419754,37.23456790123457,0)" xlink:href="#aE"/><use transform="matrix(0.06419753086419754,0,0,0.06419753086419754,50.074074074074076,0)" xlink:href="#aB"/><use transform="matrix(0.06419753086419754,0,0,0.06419753086419754,62.91358024691358,0)" xlink:href="#aA"/><use transform="matrix(0.06419753086419754,0,0,0.06419753086419754,75.75308641975309,0)" xlink:href="#aB"/><use transform="matrix(0.06419753086419754,0,0,0.06419753086419754,88.5925925925926,0)" xlink:href="#ay"/></g><path fill="#474d66" d="M141-36C126-15 110 5 73 4 37 3 15-17 15-53c-1-64 63-63 125-63 3-35-9-54-41-54-24 1-41 7-42 31l-33-3c5-37 33-52 76-52 45 0 72 20 72 64v82c-1 20 7 32 28 27v20c-31 9-61-2-59-35zM48-53c0 20 12 33 32 33 41-3 63-29 60-74-43 2-92-5-92 41" id="aI"/><path fill="#474d66" d="M85-194c31 0 48 13 60 33l-1-100h32l1 261h-30c-2-10 0-23-3-31C134-8 116 4 85 4 32 4 16-35 15-94c0-66 23-100 70-100zm9 24c-40 0-46 34-46 75 0 40 6 74 45 74 42 0 51-32 51-76 0-42-9-74-50-73" id="aJ"/><g id="h"><use transform="matrix(0.06419753086419754,0,0,0.06419753086419754,0,0)" xlink:href="#aI"/><use transform="matrix(0.06419753086419754,0,0,0.06419753086419754,12.839506172839506,0)" xlink:href="#aB"/><use transform="matrix(0.06419753086419754,0,0,0.06419753086419754,25.679012345679013,0)" xlink:href="#aJ"/></g><path fill="#474d66" d="M101-234c-31-9-42 10-38 44h38v23H63V0H32v-167H5v-23h27c-7-52 17-82 69-68v24" id="aK"/><path fill="#474d66" d="M96-169c-40 0-48 33-48 73s9 75 48 75c24 0 41-14 43-38l32 2c-6 37-31 61-74 61-59 0-76-41-82-99-10-93 101-131 147-64 4 7 5 14 7 22l-32 3c-4-21-16-35-41-35" id="aL"/><g id="i"><use transform="matrix(0.06419753086419754,0,0,0.06419753086419754,0,0)" xlink:href="#aD"/><use transform="matrix(0.06419753086419754,0,0,0.06419753086419754,11.555555555555557,0)" xlink:href="#ax"/><use transform="matrix(0.06419753086419754,0,0,0.06419753086419754,16.627160493827162,0)" xlink:href="#aF"/><use transform="matrix(0.06419753086419754,0,0,0.06419753086419754,29.46666666666667,0)" xlink:href="#aB"/><use transform="matrix(0.06419753086419754,0,0,0.06419753086419754,42.306172839506175,0)" xlink:href="#ax"/><use transform="matrix(0.06419753086419754,0,0,0.06419753086419754,47.37777777777778,0)" xlink:href="#aK"/><use transform="matrix(0.06419753086419754,0,0,0.06419753086419754,53.79753086419753,0)" xlink:href="#ax"/><use transform="matrix(0.06419753086419754,0,0,0.06419753086419754,58.86913580246914,0)" xlink:href="#aL"/><use transform="matrix(0.06419753086419754,0,0,0.06419753086419754,70.42469135802469,0)" xlink:href="#aI"/><use transform="matrix(0.06419753086419754,0,0,0.06419753086419754,83.2641975308642,0)" xlink:href="#aB"/><use transform="matrix(0.06419753086419754,0,0,0.06419753086419754,96.1037037037037,0)" xlink:href="#aJ"/></g><path fill="#474d66" d="M240 0l2-218c-23 76-54 145-80 218h-23L58-218 59 0H30v-248h44l77 211c21-75 51-140 76-211h43V0h-30" id="aM"/><path fill="#474d66" d="M143 0L79-87 56-68V0H24v-261h32v163l83-92h37l-77 82L181 0h-38" id="aN"/><g id="j"><use transform="matrix(0.06419753086419754,0,0,0.06419753086419754,0,0)" xlink:href="#aM"/><use transform="matrix(0.06419753086419754,0,0,0.06419753086419754,19.195061728395064,0)" xlink:href="#aI"/><use transform="matrix(0.06419753086419754,0,0,0.06419753086419754,32.03456790123457,0)" xlink:href="#aN"/><use transform="matrix(0.06419753086419754,0,0,0.06419753086419754,43.590123456790124,0)" xlink:href="#aA"/></g><g id="k"><use transform="matrix(0.06419753086419754,0,0,0.06419753086419754,0,0)" xlink:href="#aD"/><use transform="matrix(0.06419753086419754,0,0,0.06419753086419754,11.555555555555557,0)" xlink:href="#ax"/><use transform="matrix(0.06419753086419754,0,0,0.06419753086419754,16.627160493827162,0)" xlink:href="#aF"/><use transform="matrix(0.06419753086419754,0,0,0.06419753086419754,29.46666666666667,0)" xlink:href="#aB"/><use transform="matrix(0.06419753086419754,0,0,0.06419753086419754,42.306172839506175,0)" xlink:href="#ax"/><use transform="matrix(0.06419753086419754,0,0,0.06419753086419754,47.37777777777778,0)" xlink:href="#aK"/><use transform="matrix(0.06419753086419754,0,0,0.06419753086419754,53.79753086419753,0)" xlink:href="#ax"/><use transform="matrix(0.06419753086419754,0,0,0.06419753086419754,58.86913580246914,0)" xlink:href="#aL"/><use transform="matrix(0.06419753086419754,0,0,0.06419753086419754,70.42469135802469,0)" xlink:href="#aI"/><use transform="matrix(0.06419753086419754,0,0,0.06419753086419754,83.2641975308642,0)" xlink:href="#aB"/><use transform="matrix(0.06419753086419754,0,0,0.06419753086419754,96.1037037037037,0)" xlink:href="#aJ"/><use transform="matrix(0.06419753086419754,0,0,0.06419753086419754,108.94320987654321,0)" xlink:href="#aD"/></g><path fill="#474d66" d="M126-127c33 6 58 20 58 59 0 88-139 92-164 29-3-8-5-16-6-25l32-3c6 27 21 44 54 44 32 0 52-15 52-46 0-38-36-46-79-43v-28c39 1 72-4 72-42 0-27-17-43-46-43-28 0-47 15-49 41l-32-3c6-42 35-63 81-64 48-1 79 21 79 65 0 36-21 52-52 59" id="aO"/><path fill="#474d66" d="M101-251c82-7 93 87 43 132L82-64C71-53 59-42 53-27h129V0H18c2-99 128-94 128-182 0-28-16-43-45-43s-46 15-49 41l-32-3c6-41 34-60 81-64" id="aP"/><g id="l"><use transform="matrix(0.06419753086419754,0,0,0.06419753086419754,0,0)" xlink:href="#aO"/><use transform="matrix(0.06419753086419754,0,0,0.06419753086419754,12.839506172839506,0)" xlink:href="#aP"/></g><path fill="#474d66" d="M115-194c53 0 69 39 70 98 0 66-23 100-70 100C84 3 66-7 56-30L54 0H23l1-261h32v101c10-23 28-34 59-34zm-8 174c40 0 45-34 45-75 0-40-5-75-45-74-42 0-51 32-51 76 0 43 10 73 51 73" id="aQ"/><g id="m"><use transform="matrix(0.06419753086419754,0,0,0.06419753086419754,0,0)" xlink:href="#aQ"/><use transform="matrix(0.06419753086419754,0,0,0.06419753086419754,12.839506172839506,0)" xlink:href="#ax"/><use transform="matrix(0.06419753086419754,0,0,0.06419753086419754,17.91111111111111,0)" xlink:href="#ay"/></g><g id="n"><use transform="matrix(0.06419753086419754,0,0,0.06419753086419754,0,0)" xlink:href="#aL"/><use transform="matrix(0.06419753086419754,0,0,0.06419753086419754,11.555555555555557,0)" xlink:href="#aE"/><use transform="matrix(0.06419753086419754,0,0,0.06419753086419754,24.395061728395063,0)" xlink:href="#aB"/><use transform="matrix(0.06419753086419754,0,0,0.06419753086419754,37.23456790123457,0)" xlink:href="#aL"/><use transform="matrix(0.06419753086419754,0,0,0.06419753086419754,48.79012345679013,0)" xlink:href="#aI"/><use transform="matrix(0.06419753086419754,0,0,0.06419753086419754,61.62962962962963,0)" xlink:href="#ay"/><use transform="matrix(0.06419753086419754,0,0,0.06419753086419754,68.0493827160494,0)" xlink:href="#aA"/><use transform="matrix(0.06419753086419754,0,0,0.06419753086419754,80.8888888888889,0)" xlink:href="#aB"/><use transform="matrix(0.06419753086419754,0,0,0.06419753086419754,93.7283950617284,0)" xlink:href="#aI"/><use transform="matrix(0.06419753086419754,0,0,0.06419753086419754,106.56790123456791,0)" xlink:href="#ay"/><use transform="matrix(0.06419753086419754,0,0,0.06419753086419754,112.98765432098767,0)" xlink:href="#aA"/></g><path fill="#474d66" d="M27 0v-27h64v-190l-56 39v-29l58-41h29v221h61V0H27" id="aR"/><use transform="matrix(0.06419753086419754,0,0,0.06419753086419754,0,0)" xlink:href="#aR" id="o"/><g id="p"><use transform="matrix(0.06419753086419754,0,0,0.06419753086419754,0,0)" xlink:href="#aI"/><use transform="matrix(0.06419753086419754,0,0,0.06419753086419754,12.839506172839506,0)" xlink:href="#ay"/></g><path fill="#474d66" d="M210-169c-67 3-38 105-44 169h-31v-121c0-29-5-50-35-48C34-165 62-65 56 0H25l-1-190h30c1 10-1 24 2 32 10-44 99-50 107 0 11-21 27-35 58-36 85-2 47 119 55 194h-31v-121c0-29-5-49-35-48" id="aS"/><g id="q"><use transform="matrix(0.06419753086419754,0,0,0.06419753086419754,0,0)" xlink:href="#aS"/><use transform="matrix(0.06419753086419754,0,0,0.06419753086419754,19.195061728395064,0)" xlink:href="#aD"/><use transform="matrix(0.06419753086419754,0,0,0.06419753086419754,30.75061728395062,0)" xlink:href="#aQ"/><use transform="matrix(0.06419753086419754,0,0,0.06419753086419754,43.590123456790124,0)" xlink:href="#aD"/></g><path fill="#282c33" d="M212-179c-10-28-35-45-73-45-59 0-87 40-87 99 0 60 29 101 89 101 43 0 62-24 78-52l27 14C228-24 195 4 139 4 59 4 22-46 18-125c-6-104 99-153 187-111 19 9 31 26 39 46" id="aT"/><path fill="#282c33" d="M106-169C34-169 62-67 57 0H25v-261h32l-1 103c12-21 28-36 61-36 89 0 53 116 60 194h-32v-121c2-32-8-49-39-48" id="aU"/><path fill="#282c33" d="M100-194c63 0 86 42 84 106H49c0 40 14 67 53 68 26 1 43-12 49-29l28 8c-11 28-37 45-77 45C44 4 14-33 15-96c1-61 26-98 85-98zm52 81c6-60-76-77-97-28-3 7-6 17-6 28h103" id="aV"/><path fill="#282c33" d="M96-169c-40 0-48 33-48 73s9 75 48 75c24 0 41-14 43-38l32 2c-6 37-31 61-74 61-59 0-76-41-82-99-10-93 101-131 147-64 4 7 5 14 7 22l-32 3c-4-21-16-35-41-35" id="aW"/><path fill="#282c33" d="M143 0L79-87 56-68V0H24v-261h32v163l83-92h37l-77 82L181 0h-38" id="aX"/><g id="r"><use transform="matrix(0.06419753086419754,0,0,0.06419753086419754,0,0)" xlink:href="#aT"/><use transform="matrix(0.06419753086419754,0,0,0.06419753086419754,16.627160493827162,0)" xlink:href="#aU"/><use transform="matrix(0.06419753086419754,0,0,0.06419753086419754,29.46666666666667,0)" xlink:href="#aV"/><use transform="matrix(0.06419753086419754,0,0,0.06419753086419754,42.306172839506175,0)" xlink:href="#aW"/><use transform="matrix(0.06419753086419754,0,0,0.06419753086419754,53.86172839506173,0)" xlink:href="#aX"/></g><path fill="#282c33" d="M24-231v-30h32v30H24zM24 0v-190h32V0H24" id="aY"/><path fill="#282c33" d="M101-234c-31-9-42 10-38 44h38v23H63V0H32v-167H5v-23h27c-7-52 17-82 69-68v24" id="aZ"/><g id="s"><use transform="matrix(0.06419753086419754,0,0,0.06419753086419754,0,0)" xlink:href="#aY"/><use transform="matrix(0.06419753086419754,0,0,0.06419753086419754,5.071604938271605,0)" xlink:href="#aZ"/></g><path fill="#282c33" d="M141-36C126-15 110 5 73 4 37 3 15-17 15-53c-1-64 63-63 125-63 3-35-9-54-41-54-24 1-41 7-42 31l-33-3c5-37 33-52 76-52 45 0 72 20 72 64v82c-1 20 7 32 28 27v20c-31 9-61-2-59-35zM48-53c0 20 12 33 32 33 41-3 63-29 60-74-43 2-92-5-92 41" id="ba"/><path fill="#282c33" d="M117-194c89-4 53 116 60 194h-32v-121c0-31-8-49-39-48C34-167 62-67 57 0H25l-1-190h30c1 10-1 24 2 32 11-22 29-35 61-36" id="bb"/><path fill="#282c33" d="M179-190L93 31C79 59 56 82 12 73V49c39 6 53-20 64-50L1-190h34L92-34l54-156h33" id="bc"/><g id="t"><use transform="matrix(0.06419753086419754,0,0,0.06419753086419754,0,0)" xlink:href="#ba"/><use transform="matrix(0.06419753086419754,0,0,0.06419753086419754,12.839506172839506,0)" xlink:href="#bb"/><use transform="matrix(0.06419753086419754,0,0,0.06419753086419754,25.679012345679013,0)" xlink:href="#bc"/></g><path fill="#282c33" d="M100-194c62-1 85 37 85 99 1 63-27 99-86 99S16-35 15-95c0-66 28-99 85-99zM99-20c44 1 53-31 53-75 0-43-8-75-51-75s-53 32-53 75 10 74 51 75" id="bd"/><g id="u"><use transform="matrix(0.06419753086419754,0,0,0.06419753086419754,0,0)" xlink:href="#bd"/><use transform="matrix(0.06419753086419754,0,0,0.06419753086419754,12.839506172839506,0)" xlink:href="#aZ"/></g><path fill="#282c33" d="M59-47c-2 24 18 29 38 22v24C64 9 27 4 27-40v-127H5v-23h24l9-43h21v43h35v23H59v120" id="be"/><g id="v"><use transform="matrix(0.06419753086419754,0,0,0.06419753086419754,0,0)" xlink:href="#be"/><use transform="matrix(0.06419753086419754,0,0,0.06419753086419754,6.419753086419753,0)" xlink:href="#aU"/><use transform="matrix(0.06419753086419754,0,0,0.06419753086419754,19.25925925925926,0)" xlink:href="#aV"/></g><path fill="#282c33" d="M84 4C-5 8 30-112 23-190h32v120c0 31 7 50 39 49 72-2 45-101 50-169h31l1 190h-30c-1-10 1-25-2-33-11 22-28 36-60 37" id="bf"/><path fill="#282c33" d="M210-169c-67 3-38 105-44 169h-31v-121c0-29-5-50-35-48C34-165 62-65 56 0H25l-1-190h30c1 10-1 24 2 32 10-44 99-50 107 0 11-21 27-35 58-36 85-2 47 119 55 194h-31v-121c0-29-5-49-35-48" id="bg"/><path fill="#282c33" d="M115-194c53 0 69 39 70 98 0 66-23 100-70 100C84 3 66-7 56-30L54 0H23l1-261h32v101c10-23 28-34 59-34zm-8 174c40 0 45-34 45-75 0-40-5-75-45-74-42 0-51 32-51 76 0 43 10 73 51 73" id="bh"/><path fill="#282c33" d="M114-163C36-179 61-72 57 0H25l-1-190h30c1 12-1 29 2 39 6-27 23-49 58-41v29" id="bi"/><path fill="#282c33" d="M0 4l72-265h28L28 4H0" id="bj"/><path fill="#282c33" d="M135-143c-3-34-86-38-87 0 15 53 115 12 119 90S17 21 10-45l28-5c4 36 97 45 98 0-10-56-113-15-118-90-4-57 82-63 122-42 12 7 21 19 24 35" id="bk"/><g id="w"><use transform="matrix(0.06419753086419754,0,0,0.06419753086419754,0,0)" xlink:href="#bb"/><use transform="matrix(0.06419753086419754,0,0,0.06419753086419754,12.839506172839506,0)" xlink:href="#bf"/><use transform="matrix(0.06419753086419754,0,0,0.06419753086419754,25.679012345679013,0)" xlink:href="#bg"/><use transform="matrix(0.06419753086419754,0,0,0.06419753086419754,44.87407407407407,0)" xlink:href="#bh"/><use transform="matrix(0.06419753086419754,0,0,0.06419753086419754,57.71358024691358,0)" xlink:href="#aV"/><use transform="matrix(0.06419753086419754,0,0,0.06419753086419754,70.55308641975309,0)" xlink:href="#bi"/><use transform="matrix(0.06419753086419754,0,0,0.06419753086419754,78.19259259259259,0)" xlink:href="#bj"/><use transform="matrix(0.06419753086419754,0,0,0.06419753086419754,84.61234567901235,0)" xlink:href="#bk"/></g><g id="x"><use transform="matrix(0.06419753086419754,0,0,0.06419753086419754,0,0)" xlink:href="#aY"/><use transform="matrix(0.06419753086419754,0,0,0.06419753086419754,5.071604938271605,0)" xlink:href="#bk"/><use transform="matrix(0.06419753086419754,0,0,0.06419753086419754,16.627160493827162,0)" xlink:href="#bj"/><use transform="matrix(0.06419753086419754,0,0,0.06419753086419754,23.046913580246915,0)" xlink:href="#ba"/><use transform="matrix(0.06419753086419754,0,0,0.06419753086419754,35.88641975308642,0)" xlink:href="#bi"/><use transform="matrix(0.06419753086419754,0,0,0.06419753086419754,43.52592592592593,0)" xlink:href="#aV"/></g><path fill="#282c33" d="M177-190C167-65 218 103 67 71c-23-6-38-20-44-43l32-5c15 47 100 32 89-28v-30C133-14 115 1 83 1 29 1 15-40 15-95c0-56 16-97 71-98 29-1 48 16 59 35 1-10 0-23 2-32h30zM94-22c36 0 50-32 50-73 0-42-14-75-50-75-39 0-46 34-46 75s6 73 46 73" id="bl"/><path fill="#282c33" d="M108 0H70L1-190h34L89-25l56-165h34" id="bm"/><g id="y"><use transform="matrix(0.06419753086419754,0,0,0.06419753086419754,0,0)" xlink:href="#bb"/><use transform="matrix(0.06419753086419754,0,0,0.06419753086419754,12.839506172839506,0)" xlink:href="#aV"/><use transform="matrix(0.06419753086419754,0,0,0.06419753086419754,25.679012345679013,0)" xlink:href="#bl"/><use transform="matrix(0.06419753086419754,0,0,0.06419753086419754,38.51851851851852,0)" xlink:href="#ba"/><use transform="matrix(0.06419753086419754,0,0,0.06419753086419754,51.358024691358025,0)" xlink:href="#be"/><use transform="matrix(0.06419753086419754,0,0,0.06419753086419754,57.77777777777778,0)" xlink:href="#aY"/><use transform="matrix(0.06419753086419754,0,0,0.06419753086419754,62.84938271604938,0)" xlink:href="#bm"/><use transform="matrix(0.06419753086419754,0,0,0.06419753086419754,74.40493827160495,0)" xlink:href="#aV"/></g><path fill="#474d66" d="M127-220V0H93v-220H8v-28h204v28h-85" id="bn"/><path fill="#474d66" d="M206 0h-36l-40-164L89 0H53L-1-190h32L70-26l43-164h34l41 164 42-164h31" id="bo"/><path fill="#474d66" d="M47-170H22l-4-78h33" id="bp"/><g id="z"><use transform="matrix(0.06419753086419754,0,0,0.06419753086419754,0,0)" xlink:href="#bn"/><use transform="matrix(0.06419753086419754,0,0,0.06419753086419754,12.77530864197531,0)" xlink:href="#bo"/><use transform="matrix(0.06419753086419754,0,0,0.06419753086419754,29.40246913580247,0)" xlink:href="#aE"/><use transform="matrix(0.06419753086419754,0,0,0.06419753086419754,42.241975308641976,0)" xlink:href="#bp"/><use transform="matrix(0.06419753086419754,0,0,0.06419753086419754,46.60740740740741,0)" xlink:href="#aD"/></g><g id="A"><use transform="matrix(0.06419753086419754,0,0,0.06419753086419754,0,0)" xlink:href="#aL"/><use transform="matrix(0.06419753086419754,0,0,0.06419753086419754,11.555555555555557,0)" xlink:href="#aE"/><use transform="matrix(0.06419753086419754,0,0,0.06419753086419754,24.395061728395063,0)" xlink:href="#aS"/><use transform="matrix(0.06419753086419754,0,0,0.06419753086419754,43.590123456790124,0)" xlink:href="#av"/><use transform="matrix(0.06419753086419754,0,0,0.06419753086419754,56.42962962962963,0)" xlink:href="#aw"/><use transform="matrix(0.06419753086419754,0,0,0.06419753086419754,61.50123456790124,0)" xlink:href="#aA"/><use transform="matrix(0.06419753086419754,0,0,0.06419753086419754,74.34074074074074,0)" xlink:href="#aS"/><use transform="matrix(0.06419753086419754,0,0,0.06419753086419754,93.5358024691358,0)" xlink:href="#aA"/><use transform="matrix(0.06419753086419754,0,0,0.06419753086419754,106.37530864197531,0)" xlink:href="#aB"/><use transform="matrix(0.06419753086419754,0,0,0.06419753086419754,119.21481481481482,0)" xlink:href="#ay"/></g><path fill="#474d66" d="M0 4l72-265h28L28 4H0" id="bq"/><g id="B"><use transform="matrix(0.06419753086419754,0,0,0.06419753086419754,0,0)" xlink:href="#aD"/><use transform="matrix(0.06419753086419754,0,0,0.06419753086419754,11.555555555555557,0)" xlink:href="#ax"/><use transform="matrix(0.06419753086419754,0,0,0.06419753086419754,16.627160493827162,0)" xlink:href="#aF"/><use transform="matrix(0.06419753086419754,0,0,0.06419753086419754,29.46666666666667,0)" xlink:href="#aB"/><use transform="matrix(0.06419753086419754,0,0,0.06419753086419754,42.306172839506175,0)" xlink:href="#ax"/><use transform="matrix(0.06419753086419754,0,0,0.06419753086419754,47.37777777777778,0)" xlink:href="#aK"/><use transform="matrix(0.06419753086419754,0,0,0.06419753086419754,53.79753086419753,0)" xlink:href="#ax"/><use transform="matrix(0.06419753086419754,0,0,0.06419753086419754,58.86913580246914,0)" xlink:href="#aL"/><use transform="matrix(0.06419753086419754,0,0,0.06419753086419754,70.42469135802469,0)" xlink:href="#aI"/><use transform="matrix(0.06419753086419754,0,0,0.06419753086419754,83.2641975308642,0)" xlink:href="#aB"/><use transform="matrix(0.06419753086419754,0,0,0.06419753086419754,96.1037037037037,0)" xlink:href="#aJ"/><use transform="matrix(0.06419753086419754,0,0,0.06419753086419754,108.94320987654321,0)" xlink:href="#bq"/><use transform="matrix(0.06419753086419754,0,0,0.06419753086419754,115.36296296296297,0)" xlink:href="#aD"/></g><path fill="#474d66" d="M212-179c-10-28-35-45-73-45-59 0-87 40-87 99 0 60 29 101 89 101 43 0 62-24 78-52l27 14C228-24 195 4 139 4 59 4 22-46 18-125c-6-104 99-153 187-111 19 9 31 26 39 46" id="br"/><path fill="#474d66" d="M114-163C36-179 61-72 57 0H25l-1-190h30c1 12-1 29 2 39 6-27 23-49 58-41v29" id="bs"/><g id="C"><use transform="matrix(0.06419753086419754,0,0,0.06419753086419754,0,0)" xlink:href="#br"/><use transform="matrix(0.06419753086419754,0,0,0.06419753086419754,16.627160493827162,0)" xlink:href="#aE"/><use transform="matrix(0.06419753086419754,0,0,0.06419753086419754,29.46666666666667,0)" xlink:href="#aS"/><use transform="matrix(0.06419753086419754,0,0,0.06419753086419754,48.66172839506173,0)" xlink:href="#av"/><use transform="matrix(0.06419753086419754,0,0,0.06419753086419754,61.50123456790124,0)" xlink:href="#aI"/><use transform="matrix(0.06419753086419754,0,0,0.06419753086419754,74.34074074074074,0)" xlink:href="#bs"/><use transform="matrix(0.06419753086419754,0,0,0.06419753086419754,81.98024691358025,0)" xlink:href="#aA"/></g><g id="D"><use transform="matrix(0.06419753086419754,0,0,0.06419753086419754,0,0)" xlink:href="#aA"/><use transform="matrix(0.06419753086419754,0,0,0.06419753086419754,12.839506172839506,0)" xlink:href="#aH"/><use transform="matrix(0.06419753086419754,0,0,0.06419753086419754,24.395061728395063,0)" xlink:href="#av"/><use transform="matrix(0.06419753086419754,0,0,0.06419753086419754,37.23456790123457,0)" xlink:href="#aE"/><use transform="matrix(0.06419753086419754,0,0,0.06419753086419754,50.074074074074076,0)" xlink:href="#aB"/><use transform="matrix(0.06419753086419754,0,0,0.06419753086419754,62.91358024691358,0)" xlink:href="#aA"/><use transform="matrix(0.06419753086419754,0,0,0.06419753086419754,75.75308641975309,0)" xlink:href="#aB"/><use transform="matrix(0.06419753086419754,0,0,0.06419753086419754,88.5925925925926,0)" xlink:href="#ay"/><use transform="matrix(0.06419753086419754,0,0,0.06419753086419754,95.01234567901236,0)" xlink:href="#aD"/></g><g id="E"><use transform="matrix(0.06419753086419754,0,0,0.06419753086419754,0,0)" xlink:href="#aE"/><use transform="matrix(0.06419753086419754,0,0,0.06419753086419754,12.839506172839506,0)" xlink:href="#aK"/></g><g id="F"><use transform="matrix(0.06419753086419754,0,0,0.06419753086419754,0,0)" xlink:href="#ay"/><use transform="matrix(0.06419753086419754,0,0,0.06419753086419754,6.419753086419753,0)" xlink:href="#bo"/><use transform="matrix(0.06419753086419754,0,0,0.06419753086419754,23.046913580246915,0)" xlink:href="#aE"/></g><g id="G"><use transform="matrix(0.06419753086419754,0,0,0.06419753086419754,0,0)" xlink:href="#aB"/><use transform="matrix(0.06419753086419754,0,0,0.06419753086419754,12.839506172839506,0)" xlink:href="#aC"/><use transform="matrix(0.06419753086419754,0,0,0.06419753086419754,25.679012345679013,0)" xlink:href="#aS"/><use transform="matrix(0.06419753086419754,0,0,0.06419753086419754,44.87407407407407,0)" xlink:href="#aQ"/><use transform="matrix(0.06419753086419754,0,0,0.06419753086419754,57.71358024691358,0)" xlink:href="#aA"/><use transform="matrix(0.06419753086419754,0,0,0.06419753086419754,70.55308641975309,0)" xlink:href="#bs"/><use transform="matrix(0.06419753086419754,0,0,0.06419753086419754,78.19259259259259,0)" xlink:href="#aD"/><use transform="matrix(0.06419753086419754,0,0,0.06419753086419754,89.74814814814815,0)" xlink:href="#aG"/></g><g id="H"><use transform="matrix(0.06419753086419754,0,0,0.06419753086419754,0,0)" xlink:href="#aD"/><use transform="matrix(0.06419753086419754,0,0,0.06419753086419754,11.555555555555557,0)" xlink:href="#az"/><use transform="matrix(0.06419753086419754,0,0,0.06419753086419754,24.395061728395063,0)" xlink:href="#ax"/><use transform="matrix(0.06419753086419754,0,0,0.06419753086419754,29.46666666666667,0)" xlink:href="#aK"/><use transform="matrix(0.06419753086419754,0,0,0.06419753086419754,35.88641975308642,0)" xlink:href="#ay"/></g><g id="I"><use transform="matrix(0.06419753086419754,0,0,0.06419753086419754,0,0)" xlink:href="#aD"/><use transform="matrix(0.06419753086419754,0,0,0.06419753086419754,11.555555555555557,0)" xlink:href="#aS"/><use transform="matrix(0.06419753086419754,0,0,0.06419753086419754,30.75061728395062,0)" xlink:href="#aI"/><use transform="matrix(0.06419753086419754,0,0,0.06419753086419754,43.590123456790124,0)" xlink:href="#aw"/><use transform="matrix(0.06419753086419754,0,0,0.06419753086419754,48.66172839506173,0)" xlink:href="#aw"/><use transform="matrix(0.06419753086419754,0,0,0.06419753086419754,53.733333333333334,0)" xlink:href="#aA"/><use transform="matrix(0.06419753086419754,0,0,0.06419753086419754,66.57283950617284,0)" xlink:href="#bs"/></g><g id="J"><use transform="matrix(0.06419753086419754,0,0,0.06419753086419754,0,0)" xlink:href="#bs"/><use transform="matrix(0.06419753086419754,0,0,0.06419753086419754,7.639506172839507,0)" xlink:href="#ax"/><use transform="matrix(0.06419753086419754,0,0,0.06419753086419754,12.711111111111112,0)" xlink:href="#aF"/><use transform="matrix(0.06419753086419754,0,0,0.06419753086419754,25.55061728395062,0)" xlink:href="#az"/><use transform="matrix(0.06419753086419754,0,0,0.06419753086419754,38.39012345679012,0)" xlink:href="#ay"/></g><g id="K"><use transform="matrix(0.06419753086419754,0,0,0.06419753086419754,0,0)" xlink:href="#aC"/><use transform="matrix(0.06419753086419754,0,0,0.06419753086419754,12.839506172839506,0)" xlink:href="#aB"/><use transform="matrix(0.06419753086419754,0,0,0.06419753086419754,25.679012345679013,0)" xlink:href="#ay"/><use transform="matrix(0.06419753086419754,0,0,0.06419753086419754,32.098765432098766,0)" xlink:href="#ax"/><use transform="matrix(0.06419753086419754,0,0,0.06419753086419754,37.17037037037037,0)" xlink:href="#aw"/></g><g id="L"><use transform="matrix(0.06419753086419754,0,0,0.06419753086419754,0,0)" xlink:href="#ax"/><use transform="matrix(0.06419753086419754,0,0,0.06419753086419754,5.071604938271605,0)" xlink:href="#ay"/><use transform="matrix(0.06419753086419754,0,0,0.06419753086419754,11.491358024691358,0)" xlink:href="#aD"/></g><g id="M"><use transform="matrix(0.06419753086419754,0,0,0.06419753086419754,0,0)" xlink:href="#bo"/><use transform="matrix(0.06419753086419754,0,0,0.06419753086419754,16.627160493827162,0)" xlink:href="#aE"/><use transform="matrix(0.06419753086419754,0,0,0.06419753086419754,29.46666666666667,0)" xlink:href="#aC"/><use transform="matrix(0.06419753086419754,0,0,0.06419753086419754,42.306172839506175,0)" xlink:href="#aw"/><use transform="matrix(0.06419753086419754,0,0,0.06419753086419754,47.37777777777778,0)" xlink:href="#aJ"/></g><g id="N"><use transform="matrix(0.06419753086419754,0,0,0.06419753086419754,0,0)" xlink:href="#aS"/><use transform="matrix(0.06419753086419754,0,0,0.06419753086419754,19.195061728395064,0)" xlink:href="#aI"/><use transform="matrix(0.06419753086419754,0,0,0.06419753086419754,32.03456790123457,0)" xlink:href="#ay"/><use transform="matrix(0.06419753086419754,0,0,0.06419753086419754,38.45432098765431,0)" xlink:href="#aL"/><use transform="matrix(0.06419753086419754,0,0,0.06419753086419754,50.00987654320988,0)" xlink:href="#az"/></g><g id="O"><use transform="matrix(0.06419753086419754,0,0,0.06419753086419754,0,0)" xlink:href="#ay"/><use transform="matrix(0.06419753086419754,0,0,0.06419753086419754,6.419753086419753,0)" xlink:href="#az"/><use transform="matrix(0.06419753086419754,0,0,0.06419753086419754,19.25925925925926,0)" xlink:href="#aA"/></g><g id="P"><use transform="matrix(0.06419753086419754,0,0,0.06419753086419754,0,0)" xlink:href="#aw"/><use transform="matrix(0.06419753086419754,0,0,0.06419753086419754,5.071604938271605,0)" xlink:href="#aI"/><use transform="matrix(0.06419753086419754,0,0,0.06419753086419754,17.91111111111111,0)" xlink:href="#bs"/><use transform="matrix(0.06419753086419754,0,0,0.06419753086419754,25.55061728395062,0)" xlink:href="#aF"/><use transform="matrix(0.06419753086419754,0,0,0.06419753086419754,38.39012345679012,0)" xlink:href="#aA"/><use transform="matrix(0.06419753086419754,0,0,0.06419753086419754,51.22962962962963,0)" xlink:href="#bs"/></g><g id="Q"><use transform="matrix(0.06419753086419754,0,0,0.06419753086419754,0,0)" xlink:href="#aA"/><use transform="matrix(0.06419753086419754,0,0,0.06419753086419754,12.839506172839506,0)" xlink:href="#aH"/><use transform="matrix(0.06419753086419754,0,0,0.06419753086419754,24.395061728395063,0)" xlink:href="#av"/><use transform="matrix(0.06419753086419754,0,0,0.06419753086419754,37.23456790123457,0)" xlink:href="#aE"/><use transform="matrix(0.06419753086419754,0,0,0.06419753086419754,50.074074074074076,0)" xlink:href="#aB"/><use transform="matrix(0.06419753086419754,0,0,0.06419753086419754,62.91358024691358,0)" xlink:href="#aA"/><use transform="matrix(0.06419753086419754,0,0,0.06419753086419754,75.75308641975309,0)" xlink:href="#aB"/><use transform="matrix(0.06419753086419754,0,0,0.06419753086419754,88.5925925925926,0)" xlink:href="#ay"/></g><path fill="#474d66" d="M205 0l-28-72H64L36 0H1l101-248h38L239 0h-34zm-38-99l-47-123c-12 45-31 82-46 123h93" id="bt"/><g id="R"><use transform="matrix(0.06419753086419754,0,0,0.06419753086419754,0,0)" xlink:href="#bt"/><use transform="matrix(0.06419753086419754,0,0,0.06419753086419754,15.407407407407408,0)" xlink:href="#aJ"/><use transform="matrix(0.06419753086419754,0,0,0.06419753086419754,28.246913580246915,0)" xlink:href="#aJ"/></g><g id="S"><use transform="matrix(0.06419753086419754,0,0,0.06419753086419754,0,0)" xlink:href="#aD"/><use transform="matrix(0.06419753086419754,0,0,0.06419753086419754,11.555555555555557,0)" xlink:href="#ax"/><use transform="matrix(0.06419753086419754,0,0,0.06419753086419754,16.627160493827162,0)" xlink:href="#aF"/><use transform="matrix(0.06419753086419754,0,0,0.06419753086419754,29.46666666666667,0)" xlink:href="#aB"/><use transform="matrix(0.06419753086419754,0,0,0.06419753086419754,42.306172839506175,0)" xlink:href="#ax"/><use transform="matrix(0.06419753086419754,0,0,0.06419753086419754,47.37777777777778,0)" xlink:href="#aK"/><use transform="matrix(0.06419753086419754,0,0,0.06419753086419754,53.79753086419753,0)" xlink:href="#ax"/><use transform="matrix(0.06419753086419754,0,0,0.06419753086419754,58.86913580246914,0)" xlink:href="#aL"/><use transform="matrix(0.06419753086419754,0,0,0.06419753086419754,70.42469135802469,0)" xlink:href="#aI"/><use transform="matrix(0.06419753086419754,0,0,0.06419753086419754,83.2641975308642,0)" xlink:href="#aB"/><use transform="matrix(0.06419753086419754,0,0,0.06419753086419754,96.1037037037037,0)" xlink:href="#aJ"/><use transform="matrix(0.06419753086419754,0,0,0.06419753086419754,108.94320987654321,0)" xlink:href="#aD"/></g><g id="T"><use transform="matrix(0.06419753086419754,0,0,0.06419753086419754,0,0)" xlink:href="#aL"/><use transform="matrix(0.06419753086419754,0,0,0.06419753086419754,11.555555555555557,0)" xlink:href="#aE"/><use transform="matrix(0.06419753086419754,0,0,0.06419753086419754,24.395061728395063,0)" xlink:href="#aS"/><use transform="matrix(0.06419753086419754,0,0,0.06419753086419754,43.590123456790124,0)" xlink:href="#av"/><use transform="matrix(0.06419753086419754,0,0,0.06419753086419754,56.42962962962963,0)" xlink:href="#aw"/><use transform="matrix(0.06419753086419754,0,0,0.06419753086419754,61.50123456790124,0)" xlink:href="#aA"/><use transform="matrix(0.06419753086419754,0,0,0.06419753086419754,74.34074074074074,0)" xlink:href="#aS"/><use transform="matrix(0.06419753086419754,0,0,0.06419753086419754,93.5358024691358,0)" xlink:href="#aA"/><use transform="matrix(0.06419753086419754,0,0,0.06419753086419754,106.37530864197531,0)" xlink:href="#aB"/><use transform="matrix(0.06419753086419754,0,0,0.06419753086419754,119.21481481481482,0)" xlink:href="#ay"/></g><g id="U"><use transform="matrix(0.06419753086419754,0,0,0.06419753086419754,0,0)" xlink:href="#aQ"/><use transform="matrix(0.06419753086419754,0,0,0.06419753086419754,12.839506172839506,0)" xlink:href="#ax"/><use transform="matrix(0.06419753086419754,0,0,0.06419753086419754,17.91111111111111,0)" xlink:href="#ay"/></g><g id="V"><use transform="matrix(0.06419753086419754,0,0,0.06419753086419754,0,0)" xlink:href="#aT"/><use transform="matrix(0.06419753086419754,0,0,0.06419753086419754,16.627160493827162,0)" xlink:href="#aU"/><use transform="matrix(0.06419753086419754,0,0,0.06419753086419754,29.46666666666667,0)" xlink:href="#aV"/><use transform="matrix(0.06419753086419754,0,0,0.06419753086419754,42.306172839506175,0)" xlink:href="#aW"/><use transform="matrix(0.06419753086419754,0,0,0.06419753086419754,53.86172839506173,0)" xlink:href="#aX"/></g><g id="W"><use transform="matrix(0.06419753086419754,0,0,0.06419753086419754,0,0)" xlink:href="#aY"/><use transform="matrix(0.06419753086419754,0,0,0.06419753086419754,5.071604938271605,0)" xlink:href="#aZ"/></g><g id="X"><use transform="matrix(0.06419753086419754,0,0,0.06419753086419754,0,0)" xlink:href="#be"/><use transform="matrix(0.06419753086419754,0,0,0.06419753086419754,6.419753086419753,0)" xlink:href="#aU"/><use transform="matrix(0.06419753086419754,0,0,0.06419753086419754,19.25925925925926,0)" xlink:href="#aV"/></g><path fill="#282c33" d="M115-194c55 1 70 41 70 98S169 2 115 4C84 4 66-9 55-30l1 105H24l-1-265h31l2 30c10-21 28-34 59-34zm-8 174c40 0 45-34 45-75s-6-73-45-74c-42 0-51 32-51 76 0 43 10 73 51 73" id="bu"/><g id="Y"><use transform="matrix(0.06419753086419754,0,0,0.06419753086419754,0,0)" xlink:href="#bd"/><use transform="matrix(0.06419753086419754,0,0,0.06419753086419754,12.839506172839506,0)" xlink:href="#bf"/><use transform="matrix(0.06419753086419754,0,0,0.06419753086419754,25.679012345679013,0)" xlink:href="#be"/><use transform="matrix(0.06419753086419754,0,0,0.06419753086419754,32.098765432098766,0)" xlink:href="#bu"/><use transform="matrix(0.06419753086419754,0,0,0.06419753086419754,44.93827160493827,0)" xlink:href="#bf"/><use transform="matrix(0.06419753086419754,0,0,0.06419753086419754,57.77777777777778,0)" xlink:href="#be"/></g><g id="Z"><use transform="matrix(0.06419753086419754,0,0,0.06419753086419754,0,0)" xlink:href="#aY"/><use transform="matrix(0.06419753086419754,0,0,0.06419753086419754,5.071604938271605,0)" xlink:href="#bk"/></g><path fill="#3a414a" d="M190 0L58-211 59 0H30v-248h39L202-35l-2-213h31V0h-41" id="bv"/><path fill="#3a414a" d="M100-194c62-1 85 37 85 99 1 63-27 99-86 99S16-35 15-95c0-66 28-99 85-99zM99-20c44 1 53-31 53-75 0-43-8-75-51-75s-53 32-53 75 10 74 51 75" id="bw"/><path fill="#3a414a" d="M210-169c-67 3-38 105-44 169h-31v-121c0-29-5-50-35-48C34-165 62-65 56 0H25l-1-190h30c1 10-1 24 2 32 10-44 99-50 107 0 11-21 27-35 58-36 85-2 47 119 55 194h-31v-121c0-29-5-49-35-48" id="bx"/><path fill="#3a414a" d="M24 0v-261h32V0H24" id="by"/><path fill="#3a414a" d="M24-231v-30h32v30H24zM24 0v-190h32V0H24" id="bz"/><path fill="#3a414a" d="M9 0v-24l116-142H16v-24h144v24L44-24h123V0H9" id="bA"/><path fill="#3a414a" d="M100-194c63 0 86 42 84 106H49c0 40 14 67 53 68 26 1 43-12 49-29l28 8c-11 28-37 45-77 45C44 4 14-33 15-96c1-61 26-98 85-98zm52 81c6-60-76-77-97-28-3 7-6 17-6 28h103" id="bB"/><g id="aa"><use transform="matrix(0.06172839506172839,0,0,0.06172839506172839,0,0)" xlink:href="#bv"/><use transform="matrix(0.06172839506172839,0,0,0.06172839506172839,15.987654320987653,0)" xlink:href="#bw"/><use transform="matrix(0.06172839506172839,0,0,0.06172839506172839,28.333333333333332,0)" xlink:href="#at"/><use transform="matrix(0.06172839506172839,0,0,0.06172839506172839,35.67901234567901,0)" xlink:href="#bx"/><use transform="matrix(0.06172839506172839,0,0,0.06172839506172839,54.1358024691358,0)" xlink:href="#as"/><use transform="matrix(0.06172839506172839,0,0,0.06172839506172839,66.48148148148148,0)" xlink:href="#by"/><use transform="matrix(0.06172839506172839,0,0,0.06172839506172839,71.35802469135803,0)" xlink:href="#bz"/><use transform="matrix(0.06172839506172839,0,0,0.06172839506172839,76.23456790123457,0)" xlink:href="#bA"/><use transform="matrix(0.06172839506172839,0,0,0.06172839506172839,87.34567901234568,0)" xlink:href="#bB"/></g><path fill="#282c33" d="M140-251c81 0 123 46 123 126C263-46 219 4 140 4 59 4 17-45 17-125s42-126 123-126zm0 227c63 0 89-41 89-101s-29-99-89-99c-61 0-89 39-89 99S79-25 140-24" id="bC"/><path fill="#282c33" d="M24 0v-261h32V0H24" id="bD"/><path fill="#282c33" d="M206 0h-36l-40-164L89 0H53L-1-190h32L70-26l43-164h34l41 164 42-164h31" id="bE"/><g id="ab"><use transform="matrix(0.06172839506172839,0,0,0.06172839506172839,0,0)" xlink:href="#bC"/><use transform="matrix(0.06172839506172839,0,0,0.06172839506172839,17.28395061728395,0)" xlink:href="#bm"/><use transform="matrix(0.06172839506172839,0,0,0.06172839506172839,28.39506172839506,0)" xlink:href="#aV"/><use transform="matrix(0.06172839506172839,0,0,0.06172839506172839,40.74074074074074,0)" xlink:href="#bi"/><use transform="matrix(0.06172839506172839,0,0,0.06172839506172839,48.08641975308642,0)" xlink:href="#aZ"/><use transform="matrix(0.06172839506172839,0,0,0.06172839506172839,54.25925925925926,0)" xlink:href="#bD"/><use transform="matrix(0.06172839506172839,0,0,0.06172839506172839,59.135802469135804,0)" xlink:href="#bd"/><use transform="matrix(0.06172839506172839,0,0,0.06172839506172839,71.48148148148148,0)" xlink:href="#bE"/></g><g id="ac"><use transform="matrix(0.06172839506172839,0,0,0.06172839506172839,0,0)" xlink:href="#bd"/><use transform="matrix(0.06172839506172839,0,0,0.06172839506172839,12.345679012345679,0)" xlink:href="#bi"/></g><path fill="#282c33" d="M232-93c-1 65-40 97-104 97C67 4 28-28 28-90v-158h33c8 89-33 224 67 224 102 0 64-133 71-224h33v155" id="bF"/><path fill="#282c33" d="M85-194c31 0 48 13 60 33l-1-100h32l1 261h-30c-2-10 0-23-3-31C134-8 116 4 85 4 32 4 16-35 15-94c0-66 23-100 70-100zm9 24c-40 0-46 34-46 75 0 40 6 74 45 74 42 0 51-32 51-76 0-42-9-74-50-73" id="bG"/><path fill="#282c33" d="M103-251c84 0 111 97 45 133-19 10-37 24-39 52H78c0-63 77-55 77-114 0-30-21-42-52-43-32 0-53 17-56 46l-32-2c7-45 34-72 88-72zM77 0v-35h34V0H77" id="bH"/><g id="ad"><use transform="matrix(0.06172839506172839,0,0,0.06172839506172839,0,0)" xlink:href="#bF"/><use transform="matrix(0.06172839506172839,0,0,0.06172839506172839,15.987654320987653,0)" xlink:href="#bb"/><use transform="matrix(0.06172839506172839,0,0,0.06172839506172839,28.333333333333332,0)" xlink:href="#bG"/><use transform="matrix(0.06172839506172839,0,0,0.06172839506172839,40.67901234567901,0)" xlink:href="#aV"/><use transform="matrix(0.06172839506172839,0,0,0.06172839506172839,53.02469135802469,0)" xlink:href="#bi"/><use transform="matrix(0.06172839506172839,0,0,0.06172839506172839,60.37037037037037,0)" xlink:href="#aZ"/><use transform="matrix(0.06172839506172839,0,0,0.06172839506172839,66.5432098765432,0)" xlink:href="#bD"/><use transform="matrix(0.06172839506172839,0,0,0.06172839506172839,71.41975308641975,0)" xlink:href="#bd"/><use transform="matrix(0.06172839506172839,0,0,0.06172839506172839,83.76543209876543,0)" xlink:href="#bE"/><use transform="matrix(0.06172839506172839,0,0,0.06172839506172839,99.75308641975309,0)" xlink:href="#bH"/></g><path fill="#fff" d="M30 0v-248h187v28H63v79h144v27H63v87h162V0H30" id="bI"/><path fill="#fff" d="M141 0L90-78 38 0H4l68-98-65-92h35l48 74 47-74h35l-64 92 68 98h-35" id="bJ"/><path fill="#fff" d="M96-169c-40 0-48 33-48 73s9 75 48 75c24 0 41-14 43-38l32 2c-6 37-31 61-74 61-59 0-76-41-82-99-10-93 101-131 147-64 4 7 5 14 7 22l-32 3c-4-21-16-35-41-35" id="bK"/><path fill="#fff" d="M100-194c63 0 86 42 84 106H49c0 40 14 67 53 68 26 1 43-12 49-29l28 8c-11 28-37 45-77 45C44 4 14-33 15-96c1-61 26-98 85-98zm52 81c6-60-76-77-97-28-3 7-6 17-6 28h103" id="bL"/><path fill="#fff" d="M115-194c55 1 70 41 70 98S169 2 115 4C84 4 66-9 55-30l1 105H24l-1-265h31l2 30c10-21 28-34 59-34zm-8 174c40 0 45-34 45-75s-6-73-45-74c-42 0-51 32-51 76 0 43 10 73 51 73" id="bM"/><path fill="#fff" d="M59-47c-2 24 18 29 38 22v24C64 9 27 4 27-40v-127H5v-23h24l9-43h21v43h35v23H59v120" id="bN"/><path fill="#fff" d="M24-231v-30h32v30H24zM24 0v-190h32V0H24" id="bO"/><path fill="#fff" d="M100-194c62-1 85 37 85 99 1 63-27 99-86 99S16-35 15-95c0-66 28-99 85-99zM99-20c44 1 53-31 53-75 0-43-8-75-51-75s-53 32-53 75 10 74 51 75" id="bP"/><path fill="#fff" d="M117-194c89-4 53 116 60 194h-32v-121c0-31-8-49-39-48C34-167 62-67 57 0H25l-1-190h30c1 10-1 24 2 32 11-22 29-35 61-36" id="bQ"/><g id="ae"><use transform="matrix(0.06172839506172839,0,0,0.06172839506172839,0,0)" xlink:href="#bI"/><use transform="matrix(0.06172839506172839,0,0,0.06172839506172839,14.814814814814813,0)" xlink:href="#bJ"/><use transform="matrix(0.06172839506172839,0,0,0.06172839506172839,25.925925925925924,0)" xlink:href="#bK"/><use transform="matrix(0.06172839506172839,0,0,0.06172839506172839,37.03703703703704,0)" xlink:href="#bL"/><use transform="matrix(0.06172839506172839,0,0,0.06172839506172839,49.382716049382715,0)" xlink:href="#bM"/><use transform="matrix(0.06172839506172839,0,0,0.06172839506172839,61.72839506172839,0)" xlink:href="#bN"/><use transform="matrix(0.06172839506172839,0,0,0.06172839506172839,67.90123456790123,0)" xlink:href="#bO"/><use transform="matrix(0.06172839506172839,0,0,0.06172839506172839,72.77777777777777,0)" xlink:href="#bP"/><use transform="matrix(0.06172839506172839,0,0,0.06172839506172839,85.12345679012346,0)" xlink:href="#bQ"/></g><path fill="#3a414a" d="M233-177c-1 41-23 64-60 70L243 0h-38l-65-103H63V0H30v-248c88 3 205-21 203 71zM63-129c60-2 137 13 137-47 0-61-80-42-137-45v92" id="bR"/><path fill="#3a414a" d="M84 4C-5 8 30-112 23-190h32v120c0 31 7 50 39 49 72-2 45-101 50-169h31l1 190h-30c-1-10 1-25-2-33-11 22-28 36-60 37" id="bS"/><path fill="#3a414a" d="M117-194c89-4 53 116 60 194h-32v-121c0-31-8-49-39-48C34-167 62-67 57 0H25l-1-190h30c1 10-1 24 2 32 11-22 29-35 61-36" id="bT"/><path fill="#3a414a" d="M85-194c31 0 48 13 60 33l-1-100h32l1 261h-30c-2-10 0-23-3-31C134-8 116 4 85 4 32 4 16-35 15-94c0-66 23-100 70-100zm9 24c-40 0-46 34-46 75 0 40 6 74 45 74 42 0 51-32 51-76 0-42-9-74-50-73" id="bU"/><g id="af"><use transform="matrix(0.06172839506172839,0,0,0.06172839506172839,0,0)" xlink:href="#bR"/><use transform="matrix(0.06172839506172839,0,0,0.06172839506172839,15.987654320987653,0)" xlink:href="#bw"/><use transform="matrix(0.06172839506172839,0,0,0.06172839506172839,28.333333333333332,0)" xlink:href="#bS"/><use transform="matrix(0.06172839506172839,0,0,0.06172839506172839,40.67901234567901,0)" xlink:href="#bT"/><use transform="matrix(0.06172839506172839,0,0,0.06172839506172839,53.02469135802469,0)" xlink:href="#bU"/></g><path fill="#3a414a" d="M106-169C34-169 62-67 57 0H25v-261h32l-1 103c12-21 28-36 61-36 89 0 53 116 60 194h-32v-121c2-32-8-49-39-48" id="bV"/><g id="ag"><use transform="matrix(0.06172839506172839,0,0,0.06172839506172839,0,0)" xlink:href="#ar"/><use transform="matrix(0.06172839506172839,0,0,0.06172839506172839,6.172839506172839,0)" xlink:href="#bV"/><use transform="matrix(0.06172839506172839,0,0,0.06172839506172839,18.51851851851852,0)" xlink:href="#bB"/></g><path fill="#3a414a" d="M135-143c-3-34-86-38-87 0 15 53 115 12 119 90S17 21 10-45l28-5c4 36 97 45 98 0-10-56-113-15-118-90-4-57 82-63 122-42 12 7 21 19 24 35" id="bW"/><path fill="#3a414a" d="M177-190C167-65 218 103 67 71c-23-6-38-20-44-43l32-5c15 47 100 32 89-28v-30C133-14 115 1 83 1 29 1 15-40 15-95c0-56 16-97 71-98 29-1 48 16 59 35 1-10 0-23 2-32h30zM94-22c36 0 50-32 50-73 0-42-14-75-50-75-39 0-46 34-46 75s6 73 46 73" id="bX"/><path fill="#3a414a" d="M101-234c-31-9-42 10-38 44h38v23H63V0H32v-167H5v-23h27c-7-52 17-82 69-68v24" id="bY"/><path fill="#3a414a" d="M96-169c-40 0-48 33-48 73s9 75 48 75c24 0 41-14 43-38l32 2c-6 37-31 61-74 61-59 0-76-41-82-99-10-93 101-131 147-64 4 7 5 14 7 22l-32 3c-4-21-16-35-41-35" id="bZ"/><g id="ah"><use transform="matrix(0.06172839506172839,0,0,0.06172839506172839,0,0)" xlink:href="#bW"/><use transform="matrix(0.06172839506172839,0,0,0.06172839506172839,11.11111111111111,0)" xlink:href="#bz"/><use transform="matrix(0.06172839506172839,0,0,0.06172839506172839,15.987654320987653,0)" xlink:href="#bX"/><use transform="matrix(0.06172839506172839,0,0,0.06172839506172839,28.333333333333332,0)" xlink:href="#bT"/><use transform="matrix(0.06172839506172839,0,0,0.06172839506172839,40.67901234567901,0)" xlink:href="#bz"/><use transform="matrix(0.06172839506172839,0,0,0.06172839506172839,45.55555555555556,0)" xlink:href="#bY"/><use transform="matrix(0.06172839506172839,0,0,0.06172839506172839,51.7283950617284,0)" xlink:href="#bz"/><use transform="matrix(0.06172839506172839,0,0,0.06172839506172839,56.604938271604944,0)" xlink:href="#bZ"/><use transform="matrix(0.06172839506172839,0,0,0.06172839506172839,67.71604938271605,0)" xlink:href="#as"/><use transform="matrix(0.06172839506172839,0,0,0.06172839506172839,80.06172839506173,0)" xlink:href="#bT"/><use transform="matrix(0.06172839506172839,0,0,0.06172839506172839,92.40740740740742,0)" xlink:href="#bU"/><use transform="matrix(0.06172839506172839,0,0,0.06172839506172839,104.7530864197531,0)" xlink:href="#bW"/></g><g id="ai"><use transform="matrix(0.06172839506172839,0,0,0.06172839506172839,0,0)" xlink:href="#ar"/><use transform="matrix(0.06172839506172839,0,0,0.06172839506172839,6.172839506172839,0)" xlink:href="#bw"/></g><path fill="#3a414a" d="M101-251c82-7 93 87 43 132L82-64C71-53 59-42 53-27h129V0H18c2-99 128-94 128-182 0-28-16-43-45-43s-46 15-49 41l-32-3c6-41 34-60 81-64" id="ca"/><path fill="#3a414a" d="M27 0v-27h64v-190l-56 39v-29l58-41h29v221h61V0H27" id="cb"/><g id="aj"><use transform="matrix(0.06172839506172839,0,0,0.06172839506172839,0,0)" xlink:href="#ca"/><use transform="matrix(0.06172839506172839,0,0,0.06172839506172839,12.345679012345679,0)" xlink:href="#cb"/></g><path fill="#3a414a" d="M115-194c53 0 69 39 70 98 0 66-23 100-70 100C84 3 66-7 56-30L54 0H23l1-261h32v101c10-23 28-34 59-34zm-8 174c40 0 45-34 45-75 0-40-5-75-45-74-42 0-51 32-51 76 0 43 10 73 51 73" id="cc"/><g id="ak"><use transform="matrix(0.06172839506172839,0,0,0.06172839506172839,0,0)" xlink:href="#cc"/><use transform="matrix(0.06172839506172839,0,0,0.06172839506172839,12.345679012345679,0)" xlink:href="#bz"/><use transform="matrix(0.06172839506172839,0,0,0.06172839506172839,17.22222222222222,0)" xlink:href="#ar"/><use transform="matrix(0.06172839506172839,0,0,0.06172839506172839,23.39506172839506,0)" xlink:href="#bW"/></g><path fill="#e81313" d="M146-102V0H94v-102L6-248h54l60 105 60-105h54" id="cd"/><path fill="#e81313" d="M185-48c-13 30-37 53-82 52C43 2 14-33 14-96s30-98 90-98c62 0 83 45 84 108H66c0 31 8 55 39 56 18 0 30-7 34-22zm-45-69c5-46-57-63-70-21-2 6-4 13-4 21h74" id="ce"/><path fill="#e81313" d="M137-138c1-29-70-34-71-4 15 46 118 7 119 86 1 83-164 76-172 9l43-7c4 19 20 25 44 25 33 8 57-30 24-41C81-84 22-81 20-136c-2-80 154-74 161-7" id="cf"/><g id="al"><use transform="matrix(0.04938271604938272,0,0,0.04938271604938272,0,0)" xlink:href="#cd"/><use transform="matrix(0.04938271604938272,0,0,0.04938271604938272,10.864197530864198,0)" xlink:href="#ce"/><use transform="matrix(0.04938271604938272,0,0,0.04938271604938272,20.74074074074074,0)" xlink:href="#cf"/></g><path fill="#008a0e" d="M175 0L67-191c6 58 2 128 3 191H24v-248h59L193-55c-6-58-2-129-3-193h46V0h-61" id="cg"/><path fill="#008a0e" d="M110-194c64 0 96 36 96 99 0 64-35 99-97 99-61 0-95-36-95-99 0-62 34-99 96-99zm-1 164c35 0 45-28 45-65 0-40-10-65-43-65-34 0-45 26-45 65 0 36 10 65 43 65" id="ch"/><g id="am"><use transform="matrix(0.04938271604938272,0,0,0.04938271604938272,0,0)" xlink:href="#cg"/><use transform="matrix(0.04938271604938272,0,0,0.04938271604938272,12.790123456790125,0)" xlink:href="#ch"/></g><path fill="#008a0e" d="M146-102V0H94v-102L6-248h54l60 105 60-105h54" id="ci"/><path fill="#008a0e" d="M185-48c-13 30-37 53-82 52C43 2 14-33 14-96s30-98 90-98c62 0 83 45 84 108H66c0 31 8 55 39 56 18 0 30-7 34-22zm-45-69c5-46-57-63-70-21-2 6-4 13-4 21h74" id="cj"/><path fill="#008a0e" d="M137-138c1-29-70-34-71-4 15 46 118 7 119 86 1 83-164 76-172 9l43-7c4 19 20 25 44 25 33 8 57-30 24-41C81-84 22-81 20-136c-2-80 154-74 161-7" id="ck"/><g id="an"><use transform="matrix(0.04938271604938272,0,0,0.04938271604938272,0,0)" xlink:href="#ci"/><use transform="matrix(0.04938271604938272,0,0,0.04938271604938272,10.864197530864198,0)" xlink:href="#cj"/><use transform="matrix(0.04938271604938272,0,0,0.04938271604938272,20.74074074074074,0)" xlink:href="#ck"/></g><path fill="#e81313" d="M175 0L67-191c6 58 2 128 3 191H24v-248h59L193-55c-6-58-2-129-3-193h46V0h-61" id="cl"/><path fill="#e81313" d="M110-194c64 0 96 36 96 99 0 64-35 99-97 99-61 0-95-36-95-99 0-62 34-99 96-99zm-1 164c35 0 45-28 45-65 0-40-10-65-43-65-34 0-45 26-45 65 0 36 10 65 43 65" id="cm"/><g id="ao"><use transform="matrix(0.04938271604938272,0,0,0.04938271604938272,0,0)" xlink:href="#cl"/><use transform="matrix(0.04938271604938272,0,0,0.04938271604938272,12.790123456790125,0)" xlink:href="#cm"/></g><path fill="#fff" d="M30-248c118-7 216 8 213 122C240-48 200 0 122 0H30v-248zM63-27c89 8 146-16 146-99s-60-101-146-95v194" id="cn"/><g id="ap"><use transform="matrix(0.06172839506172839,0,0,0.06172839506172839,0,0)" xlink:href="#cn"/><use transform="matrix(0.06172839506172839,0,0,0.06172839506172839,15.987654320987653,0)" xlink:href="#bP"/><use transform="matrix(0.06172839506172839,0,0,0.06172839506172839,28.333333333333332,0)" xlink:href="#bQ"/><use transform="matrix(0.06172839506172839,0,0,0.06172839506172839,40.67901234567901,0)" xlink:href="#bL"/></g></defs></g></svg>